<svg width="1559" height="566" viewBox="0 0 1559 566" fill="none" xmlns="http://www.w3.org/2000/svg">
<g clip-path="url(#clip0_704_42)">
<path d="M182.2 419.6C158.2 419.6 136 415.2 115.6 406.4C95.6 397.2 79.4 382.2 67 361.4C55 340.2 49 312.6 49 278.6C49 247 55.2 220.6 67.6 199.4C80.4 177.8 98.2 161.6 121 150.8C143.8 139.6 170.2 134 200.2 134C221.8 134 241.8 137 260.2 143C278.6 148.6 293 154.8 303.4 161.6C311 166.4 317 172.2 321.4 179C325.8 185.4 328 193.6 328 203.6V391.4H242.8V213.8C238 211 232.4 208.8 226 207.2C220 205.2 212.4 204.2 203.2 204.2C183.6 204.2 167.6 210.2 155.2 222.2C143.2 234.2 137.2 253 137.2 278.6C137.2 306.6 143 326 154.6 336.8C166.2 347.6 180.6 353 197.8 353C211 353 222 350.6 230.8 345.8C239.6 341 247.2 335.8 253.6 330.2L256.6 401C248.2 406.2 237.8 410.6 225.4 414.2C213.4 417.8 199 419.6 182.2 419.6ZM244 428V372.2H328V431C328 458.6 321.4 481.2 308.2 498.8C295.4 516.4 277.8 529.4 255.4 537.8C233.4 546.2 208.6 550.4 181 550.4C160.2 550.4 141.8 548.6 125.8 545C109.8 541.4 97.4 536.8 88.6 531.2C75 522.4 68.2 510 68.2 494C68.2 485.6 69.8 478 73 471.2C76.6 464.8 80.8 460 85.6 456.8C96.4 463.2 109.2 468.6 124 473C138.8 477.8 154.4 480.2 170.8 480.2C193.2 480.2 211 476 224.2 467.6C237.4 459.6 244 446.4 244 428ZM983.322 137C995.322 137 1005.52 139.8 1013.92 145.4C1022.32 150.6 1026.52 159.6 1026.52 172.4C1026.52 179.6 1024.32 190.8 1019.92 206C1015.92 221.2 1010.52 238.8 1003.72 258.8C997.322 278.4 990.122 298.8 982.122 320C974.122 340.8 966.122 360.4 958.122 378.8C950.122 396.8 942.922 411.8 936.522 423.8C932.122 427 925.122 429.8 915.522 432.2C906.322 435 895.922 436.4 884.322 436.4C870.722 436.4 858.922 434.6 848.922 431C839.322 427.4 832.722 421.8 829.122 414.2C824.722 405.8 819.322 394 812.922 378.8C806.522 363.6 799.522 346.4 791.922 327.2C784.722 307.6 777.522 287.4 770.322 266.6C763.522 245.8 756.922 225.8 750.522 206.6C744.522 187.4 739.922 170.6 736.722 156.2C741.522 151 747.922 146.6 755.922 143C764.322 139 773.322 137 782.922 137C795.322 137 805.322 139.6 812.922 144.8C820.922 150 826.922 159.8 830.922 174.2L857.322 269.6C860.522 280.8 863.722 292 866.922 303.2C870.522 314.4 873.722 325 876.522 335C879.722 344.6 882.122 352.6 883.722 359H886.722C896.322 326.6 905.922 292 915.522 255.2C925.522 218 934.322 181.8 941.922 146.6C954.322 140.2 968.122 137 983.322 137ZM1115.53 329L1111.93 269L1261.33 245.6C1260.13 234 1255.13 223.6 1246.33 214.4C1237.53 204.8 1224.53 200 1207.33 200C1188.93 200 1173.73 206.2 1161.73 218.6C1149.73 230.6 1143.53 248 1143.13 270.8L1145.53 311.6C1149.53 333.6 1159.13 349.4 1174.33 359C1189.53 368.2 1207.53 372.8 1228.33 372.8C1245.13 372.8 1260.93 370.6 1275.73 366.2C1290.53 361.4 1302.53 356.2 1311.73 350.6C1317.33 354.2 1322.13 359.2 1326.13 365.6C1330.13 372 1332.13 378.8 1332.13 386C1332.13 398 1327.33 408 1317.73 416C1308.53 424 1295.53 430 1278.73 434C1262.33 438 1243.53 440 1222.33 440C1191.53 440 1163.93 434.2 1139.53 422.6C1115.13 411 1095.93 393.6 1081.93 370.4C1067.93 347.2 1060.93 318.2 1060.93 283.4C1060.93 257.8 1064.93 235.6 1072.93 216.8C1080.93 198 1091.73 182.6 1105.33 170.6C1119.33 158.2 1134.93 149 1152.13 143C1169.73 137 1187.93 134 1206.73 134C1234.33 134 1258.33 139.6 1278.73 150.8C1299.53 161.6 1315.73 176.4 1327.33 195.2C1338.93 214 1344.73 235.8 1344.73 260.6C1344.73 273 1341.33 282.4 1334.53 288.8C1327.73 294.8 1318.33 298.8 1306.33 300.8L1115.53 329ZM1402.92 272.6L1491.12 274.4V430.4C1487.52 431.2 1482.12 432.2 1474.92 433.4C1467.72 434.6 1459.92 435.2 1451.52 435.2C1434.72 435.2 1422.32 432.2 1414.32 426.2C1406.72 420.2 1402.92 409.4 1402.92 393.8V272.6ZM1491.12 320L1402.92 318.2V40.4C1406.52 39.2 1411.92 38 1419.12 36.8C1426.32 35.6 1434.12 35 1442.52 35C1459.72 35 1472.12 38 1479.72 44C1487.32 49.6 1491.12 60.4 1491.12 76.4V320Z" fill="#007BFF"/>
<path fill-rule="evenodd" clip-rule="evenodd" d="M539.5 442C632.56 442 708 366.56 708 273.5C708 240.846 698.711 210.361 682.633 184.544L632.741 228.562L633.356 212.708L633.977 198.867C633.986 198.77 633.973 198.661 633.994 198.542C633.996 196.167 632.076 194.242 629.697 194.223C627.305 194.226 625.38 196.146 625.378 198.521L625.204 202.622L619.523 346.752C618.801 355.743 616.508 361.746 612.633 364.086C609.816 365.533 606.534 365.777 603.542 364.694L580.385 244.718C580.223 243.974 579.854 243.291 579.324 242.767C578.32 241.592 576.79 241.06 575.296 241.365C572.997 241.812 571.484 244.045 571.953 246.357L575.24 263.764L577.746 276.764L495.736 349.171C494.568 350.135 493.041 350.582 491.537 350.4C490.041 350.311 488.608 349.6 487.615 348.458L467.262 325.271C465.335 322.934 465.581 319.527 467.781 317.451L475.723 310.473L427.116 305.259L426.961 305.232C426.808 305.206 426.649 305.178 426.496 305.139C423.405 304.423 421.487 301.349 422.202 298.257L429.094 267.866C429.684 265.376 431.868 263.569 434.43 263.441L497.306 260.955L527.414 234.187L454.226 210.263C452.514 209.691 451.151 208.319 450.596 206.616C448.458 199.762 449.557 192.319 453.592 186.409C458.585 179.974 467.596 177.223 480.251 178.172L581.089 187.012L638.115 136.856C610.391 116.813 576.325 105 539.5 105C446.44 105 371 180.44 371 273.5C371 366.56 446.44 442 539.5 442Z" fill="#FECF00"/>
<path d="M426.451 289.019L476.54 294.284L468.373 301.491C466.111 303.634 465.865 307.144 467.856 309.548L488.875 333.392C489.901 334.565 491.379 335.295 492.92 335.384C494.469 335.567 496.042 335.104 497.243 334.108L581.574 259.332L578.964 245.943L575.54 228.017C575.051 225.637 576.605 223.333 578.973 222.868C580.511 222.55 582.089 223.094 583.126 224.303C583.673 224.841 584.055 225.544 584.223 226.31L608.344 349.864C611.429 350.974 614.809 350.714 617.709 349.218C621.695 346.799 624.044 340.609 624.768 331.345L630.305 182.843L630.476 178.617C630.473 176.171 632.451 174.189 634.915 174.18C637.367 174.195 639.349 176.174 639.352 178.62C639.33 178.743 639.344 178.856 639.335 178.955L638.726 193.216L638.127 209.552L704.179 151.026C723.263 134.149 728.466 109.852 716.001 95.778C709.14 88.5187 699.119 85.1633 689.259 86.8295C678.212 88.36 667.893 93.2108 659.667 100.746L584.822 166.858L480.915 157.972C467.875 157.022 458.598 159.876 453.468 166.517C449.324 172.614 448.208 180.285 450.426 187.341C451.001 189.094 452.408 190.505 454.173 191.091L529.627 215.577L498.667 243.221L433.895 245.92C431.256 246.058 429.01 247.924 428.408 250.491L421.374 281.816C420.644 285.003 422.626 288.166 425.813 288.896C426.023 288.951 426.246 288.982 426.451 289.019Z" fill="white"/>
</g>
<defs>
<clipPath id="clip0_704_42">
<rect width="1559" height="566" fill="white"/>
</clipPath>
</defs>
</svg>
