<svg width="1000" height="1000" viewBox="0 0 1000 1000" fill="none" xmlns="http://www.w3.org/2000/svg">
<path d="M113.789 577.623C98.2573 577.623 83.8908 574.775 70.6892 569.08C57.7465 563.127 47.2629 553.42 39.2384 539.959C31.4727 526.24 27.5899 508.379 27.5899 486.376C27.5899 465.927 31.6021 448.842 39.6266 435.123C47.91 421.145 59.429 410.661 74.1838 403.672C88.9385 396.424 106.023 392.8 125.437 392.8C139.415 392.8 152.358 394.742 164.265 398.624C176.173 402.248 185.491 406.261 192.222 410.661C197.14 413.768 201.023 417.521 203.87 421.921C206.717 426.063 208.141 431.37 208.141 437.841V559.373H153.005V444.442C149.899 442.63 146.275 441.206 142.133 440.171C138.25 438.876 133.332 438.229 127.378 438.229C114.695 438.229 104.34 442.112 96.3158 449.878C88.5502 457.643 84.6674 469.81 84.6674 486.376C84.6674 504.496 88.4208 517.051 95.9276 524.04C103.434 531.029 112.753 534.523 123.884 534.523C132.426 534.523 139.545 532.97 145.239 529.864C150.934 526.758 155.852 523.393 159.994 519.769L161.936 565.586C156.5 568.951 149.769 571.798 141.745 574.128C133.979 576.458 124.66 577.623 113.789 577.623ZM153.782 583.059V546.948H208.141V585C208.141 602.861 203.87 617.486 195.328 628.876C187.044 640.266 175.655 648.678 161.159 654.114C146.922 659.55 130.873 662.268 113.012 662.268C99.5515 662.268 87.6442 661.103 77.29 658.774C66.9358 656.444 58.9113 653.467 53.2165 649.843C44.4154 644.148 40.0149 636.124 40.0149 625.77C40.0149 620.334 41.0503 615.415 43.1212 611.015C45.4509 606.873 48.1688 603.767 51.2751 601.696C58.2642 605.838 66.5475 609.332 76.1252 612.18C85.7028 615.286 95.7981 616.839 106.411 616.839C120.907 616.839 132.426 614.121 140.968 608.685C149.511 603.508 153.782 594.966 153.782 583.059ZM632.224 394.742C639.99 394.742 646.591 396.554 652.027 400.178C657.463 403.543 660.181 409.367 660.181 417.65C660.181 422.31 658.757 429.558 655.909 439.394C653.321 449.231 649.826 460.62 645.426 473.563C641.284 486.247 636.625 499.448 631.448 513.168C626.271 526.628 621.094 539.312 615.916 551.219C610.739 562.868 606.08 572.575 601.938 580.341C599.091 582.411 594.561 584.223 588.348 585.777C582.395 587.589 575.664 588.495 568.158 588.495C559.357 588.495 551.72 587.33 545.249 585C539.037 582.67 534.765 579.046 532.436 574.128C529.588 568.692 526.094 561.056 521.952 551.219C517.81 541.383 513.28 530.252 508.362 517.827C503.703 505.143 499.043 492.071 494.384 478.611C489.984 465.15 485.712 452.207 481.571 439.782C477.688 427.357 474.711 416.485 472.64 407.167C475.746 403.802 479.888 400.954 485.065 398.624C490.501 396.036 496.325 394.742 502.538 394.742C510.562 394.742 517.034 396.424 521.952 399.789C527.129 403.154 531.012 409.496 533.601 418.815L550.685 480.552C552.756 487.8 554.827 495.048 556.898 502.296C559.227 509.544 561.298 516.403 563.11 522.875C565.181 529.087 566.734 534.264 567.769 538.406H569.711C575.923 517.439 582.136 495.048 588.348 471.233C594.82 447.16 600.515 423.733 605.433 400.954C613.457 396.813 622.388 394.742 632.224 394.742ZM717.78 518.992L715.45 480.164L812.132 465.021C811.356 457.514 808.12 450.784 802.425 444.83C796.731 438.618 788.318 435.511 777.187 435.511C765.28 435.511 755.443 439.524 747.678 447.548C739.912 455.314 735.9 466.574 735.641 481.329L737.194 507.732C739.783 521.969 745.995 532.194 755.832 538.406C765.668 544.36 777.316 547.337 790.777 547.337C801.649 547.337 811.874 545.913 821.451 543.066C831.029 539.959 838.795 536.594 844.748 532.97C848.372 535.3 851.478 538.536 854.067 542.677C856.656 546.819 857.95 551.219 857.95 555.879C857.95 563.644 854.844 570.116 848.631 575.293C842.677 580.47 834.265 584.353 823.393 586.941C812.78 589.53 800.613 590.824 786.894 590.824C766.962 590.824 749.101 587.071 733.311 579.564C717.521 572.057 705.096 560.797 696.036 545.783C686.976 530.77 682.446 512.003 682.446 489.483C682.446 472.916 685.035 458.549 690.212 446.383C695.389 434.217 702.378 424.251 711.179 416.485C720.239 408.461 730.334 402.507 741.465 398.624C752.855 394.742 764.633 392.8 776.799 392.8C794.66 392.8 810.191 396.424 823.393 403.672C836.853 410.661 847.337 420.239 854.844 432.405C862.35 444.571 866.104 458.679 866.104 474.728C866.104 482.752 863.903 488.835 859.503 492.977C855.102 496.86 849.019 499.448 841.254 500.743L717.78 518.992ZM903.764 482.493L960.842 483.658V584.612C958.512 585.129 955.017 585.777 950.358 586.553C945.698 587.33 940.651 587.718 935.215 587.718C924.343 587.718 916.318 585.777 911.141 581.894C906.223 578.011 903.764 571.022 903.764 560.926V482.493ZM960.842 513.168L903.764 512.003V332.228C906.094 331.452 909.588 330.675 914.248 329.899C918.907 329.122 923.955 328.734 929.391 328.734C940.521 328.734 948.546 330.675 953.464 334.558C958.382 338.182 960.842 345.171 960.842 355.525V513.168Z" fill="#007BFF"/>
<path fill-rule="evenodd" clip-rule="evenodd" d="M345.011 592.816C405.233 592.816 454.053 543.996 454.053 483.774C454.053 462.642 448.042 442.914 437.637 426.207L405.35 454.693L405.748 444.433L406.15 435.476C406.152 435.451 406.152 435.425 406.153 435.398C406.153 435.356 406.153 435.312 406.161 435.265C406.163 433.729 404.92 432.483 403.38 432.47C401.833 432.472 400.587 433.715 400.586 435.251L400.473 437.906L396.796 531.178C396.329 536.996 394.845 540.881 392.338 542.395C390.515 543.331 388.391 543.49 386.455 542.789L371.469 465.147C371.364 464.666 371.125 464.224 370.782 463.885C370.133 463.125 369.142 462.781 368.176 462.978C366.688 463.267 365.709 464.712 366.012 466.208L368.139 477.473L369.761 485.886L316.689 532.743C315.933 533.367 314.945 533.656 313.972 533.539C313.004 533.48 312.077 533.02 311.434 532.282L298.263 517.276C297.016 515.764 297.175 513.559 298.598 512.216L303.738 507.7L272.283 504.326C272.251 504.32 272.218 504.315 272.186 504.309C272.085 504.292 271.981 504.274 271.882 504.248C269.881 503.785 268.64 501.795 269.103 499.795L273.563 480.128C273.945 478.517 275.358 477.347 277.016 477.264L317.705 475.655L337.189 458.333L289.827 442.851C288.719 442.48 287.837 441.592 287.478 440.491C286.094 436.055 286.805 431.238 289.417 427.414C292.648 423.249 298.479 421.469 306.669 422.083L371.925 427.804L408.828 395.346C390.887 382.376 368.841 374.731 345.011 374.731C284.788 374.731 235.968 423.551 235.968 483.774C235.968 543.996 284.788 592.816 345.011 592.816Z" fill="#FECF00"/>
<path d="M271.853 493.816L304.267 497.224L298.982 501.887C297.518 503.274 297.359 505.546 298.647 507.102L312.249 522.532C312.913 523.291 313.869 523.763 314.867 523.821C315.87 523.94 316.887 523.64 317.665 522.995L372.239 474.605L370.55 465.941L368.333 454.34C368.017 452.8 369.023 451.309 370.555 451.008C371.55 450.802 372.572 451.154 373.242 451.937C373.597 452.285 373.844 452.74 373.952 453.235L389.562 533.192C391.558 533.91 393.746 533.742 395.622 532.774C398.202 531.208 399.722 527.203 400.191 521.207L403.774 425.106L403.884 422.371C403.882 420.788 405.163 419.506 406.758 419.5C408.344 419.51 409.627 420.79 409.629 422.373C409.615 422.453 409.624 422.526 409.617 422.59L409.223 431.819L408.836 442.39L451.58 404.516C463.931 393.595 467.298 377.871 459.231 368.763C454.791 364.065 448.306 361.894 441.925 362.972C434.777 363.963 428.099 367.102 422.776 371.978L374.34 414.762L307.098 409.011C298.659 408.397 292.656 410.243 289.336 414.541C286.654 418.487 285.932 423.451 287.367 428.017C287.74 429.152 288.65 430.064 289.793 430.444L338.621 446.29L318.586 464.179L276.67 465.926C274.962 466.015 273.508 467.223 273.119 468.884L268.567 489.155C268.095 491.217 269.377 493.265 271.44 493.737C271.576 493.772 271.72 493.793 271.853 493.816Z" fill="white"/>
</svg>
